<svg xmlns="http://www.w3.org/2000/svg" version="1.1" xmlns:xlink="http://www.w3.org/1999/xlink" xmlns:svgjs="http://svgjs.com/svgjs" viewBox="0 0 140 140" width="140" height="140">
	<g transform="matrix(5.833333333333333,0,0,5.833333333333333,0,0)">
		<path d="M14.019,4.1,10.084,9.35a1.016,1.016,0,0,1-1.531.109L6.519,7.425" fill="none" stroke="#bdbdc5" stroke-linecap="round" stroke-linejoin="round" stroke-width="1.5">
		</path>
		<path d="M4.500 20.968 A1.875 1.875 0 1 0 8.250 20.968 A1.875 1.875 0 1 0 4.500 20.968 Z" fill="none" stroke="#bdbdc5" stroke-linecap="round" stroke-linejoin="round" stroke-width="1.5">
		</path>
		<path d="M12.000 20.968 A1.875 1.875 0 1 0 15.750 20.968 A1.875 1.875 0 1 0 12.000 20.968 Z" fill="none" stroke="#bdbdc5" stroke-linecap="round" stroke-linejoin="round" stroke-width="1.5">
		</path>
		<path d="M.75,7.093,3.079,14.98a1.5,1.5,0,0,0,1.45,1.113H15.347A1.5,1.5,0,0,0,16.8,14.98L20.038,2.826a2.249,2.249,0,0,1,2.174-1.67H23.25" fill="none" stroke="#bdbdc5" stroke-linecap="round" stroke-linejoin="round" stroke-width="1.5">
		</path>
	</g>
</svg>
