<?xml version="1.0" encoding="UTF-8" standalone="no"?>
<svg
   xmlns:dc="http://purl.org/dc/elements/1.1/"
   xmlns:cc="http://creativecommons.org/ns#"
   xmlns:rdf="http://www.w3.org/1999/02/22-rdf-syntax-ns#"
   xmlns:svg="http://www.w3.org/2000/svg"
   xmlns="http://www.w3.org/2000/svg"
   xmlns:sodipodi="http://sodipodi.sourceforge.net/DTD/sodipodi-0.dtd"
   xmlns:inkscape="http://www.inkscape.org/namespaces/inkscape"
   inkscape:version="1.0 (4035a4f, 2020-05-01)"
   sodipodi:docname="steam-icon-new.svg"
   id="svg835"
   version="1.1"
   viewBox="23.274 22.154 43.289983 25.231019"
   height="1144.0009"
   width="1963.6564">
  <metadata
     id="metadata841">
    <rdf:RDF>
      <cc:Work
         rdf:about="">
        <dc:format>image/svg+xml</dc:format>
        <dc:type
           rdf:resource="http://purl.org/dc/dcmitype/StillImage" />
      </cc:Work>
    </rdf:RDF>
  </metadata>
  <defs
     id="defs839" />
  <sodipodi:namedview
     inkscape:current-layer="svg835"
     inkscape:window-maximized="0"
     inkscape:window-y="82"
     inkscape:window-x="179"
     inkscape:cy="781.58172"
     inkscape:cx="749.27021"
     inkscape:zoom="0.2672"
     showgrid="false"
     id="namedview837"
     inkscape:window-height="871"
     inkscape:window-width="1492"
     inkscape:pageshadow="2"
     inkscape:pageopacity="0"
     guidetolerance="10"
     gridtolerance="10"
     objecttolerance="10"
     borderopacity="1"
     bordercolor="#666666"
     pagecolor="#ffffff"
     inkscape:document-rotation="0" />
  <path
     sodipodi:nodetypes="ccscccccccccccccccccccccccccccccccccccccccccccc"
     style="stroke:#0b0000;stroke-width:0;stroke-miterlimit:4;stroke-dasharray:none;stroke-opacity:1"
     id="path833"
     d="m 59.685539,29.11677 c -5.52e-4,2.2157 1.040637,0.82431 -1.175062,0.825414 1.866315,-1.459896 -0.08241,2.214467 0,0 0.04902,-1.317242 2.192612,-2.803027 2.248101,-0.330165 z m -0.59626,-6.962752 c -4.103491,-0.0089 -7.439813,3.305539 -7.458,7.409 l -4.652,6.671 c -0.196,-0.025 -0.394,-0.025 -0.566,-0.025 -1.004832,0.0039 -1.990411,0.275956 -2.855,0.788 l -9.266576,-5.00126 c -0.558328,-2.557518 -2.822247,-4.381138 -5.44,-4.382 -3.083266,0.0066 -5.58095,2.504733 -5.587,5.588 0.0066,3.08304 2.503961,5.58085 5.587,5.588 1.004832,-0.0039 1.990411,-0.275956 2.855,-0.788 l 9.266576,5.00126 c 0.558328,2.557518 2.822247,4.381138 5.44,4.382 2.88,0 5.269,-2.215 5.538,-5.021 l 7.164,-5.243 c 4.120084,0.0028 7.460765,-3.337916 7.458,-7.458 0.0028,-4.120084 -3.337916,-7.460765 -7.458,-7.458 z m 0,2.461 c 2.759081,0.0017 4.995345,2.237919 4.997,4.997 -0.0017,2.759081 -2.237919,4.995345 -4.997,4.997 -2.758691,-0.0022 -4.994346,-2.238309 -4.996,-4.997 0.0017,-2.758691 2.237309,-4.994794 4.996,-4.997 z m -30.263576,4.45174 c 1.575,0 2.929,0.886 3.619,2.166 l 0.515785,2.324574 c -1.46435,-0.248078 -0.203051,1.549815 -2.046465,0.938044 0.804785,1.424438 -0.462076,1.590439 -2.08832,2.743382 l 2.61937,-0.594249 c -0.290119,0.06942 -1.248045,0.350297 -2.61937,0.594249 -2.272277,0.0044 -4.115435,-1.838723 -4.111,-4.111 -0.0044,-2.272277 1.838723,-4.115435 4.111,-4.111 z m 17.562576,8.59526 c 2.272345,-0.0055 4.115994,1.837654 4.111,4.11 0.0044,2.272116 -1.838885,4.114989 -4.111,4.11 -1.521692,0.0069 -2.919143,-0.838781 -3.619,-2.19 0.665,0.271 -8.17e-4,-2.98937 0.665183,-2.71937 1.672132,0.659525 -0.693361,1.658388 0,0 0.667491,-1.671785 3.766584,-2.522604 2.093817,-3.18763 v 0 c 0.295,-0.074 0.59,-0.1 0.886,-0.1 z"
     fill="#08ff07"
     stroke="#000000" />
  <circle
     r="2.3937016"
     cy="29.61202"
     cx="59.10775"
     id="path843"
     style="fill:#08ff07;stroke:#00001c;stroke-width:0;stroke-linecap:round;stroke-linejoin:round;stroke-miterlimit:4;stroke-dasharray:none;paint-order:fill markers stroke" />
  <circle
     style="fill:#08ff07;stroke:#00001c;stroke-width:0;stroke-linecap:round;stroke-linejoin:round;stroke-miterlimit:4;stroke-dasharray:none;paint-order:fill markers stroke"
     id="path843-0"
     cx="43.927498"
     cy="40.519489"
     r="3.0953035" />
  <circle
     r="3.0953038"
     cy="34.039986"
     cx="31.092299"
     id="path843-0-5"
     style="fill:#08ff07;stroke:#00001c;stroke-width:0;stroke-linecap:butt;stroke-linejoin:miter;stroke-miterlimit:4;stroke-dasharray:none;paint-order:normal" />
</svg>
