<svg xmlns="http://www.w3.org/2000/svg" xmlns:xlink="http://www.w3.org/1999/xlink" viewBox="0 0 782.28 146.78"><defs><style>.cls-1{fill:#08ff07;}.cls-2{fill:#00030c;}.cls-3{fill:#fff;}.cls-4{fill:url(#linear-gradient);}.cls-5{fill:url(#linear-gradient-2);}.cls-6{fill:url(#linear-gradient-3);}</style><linearGradient id="linear-gradient" x1="640.85" y1="123.09" x2="640.85" y2="82.97" gradientTransform="matrix(1, 0, -0.18, 1, -44.2, 0)" gradientUnits="userSpaceOnUse"><stop offset="0" stop-color="#fff"/><stop offset="1" stop-color="#9c9aa6"/></linearGradient><linearGradient id="linear-gradient-2" x1="275.25" y1="122.08" x2="275.25" y2="81.96" xlink:href="#linear-gradient"/><linearGradient id="linear-gradient-3" x1="633.67" y1="124.3" x2="633.67" y2="84.18" xlink:href="#linear-gradient"/></defs><g id="Layer_2" data-name="Layer 2"><g id="Logo_name" data-name="Logo name"><path class="cls-1" d="M724.15,146.78c-32.91,0-51.85-10.15-62.73-21.39a63.33,63.33,0,0,1-6,5.88c-12.14,10.29-27.45,15.51-45.53,15.51H534.37c-11.2,0-20.66-3-27.62-8.66l-1.55,8.66H471c-11.78,0-21.65-3.34-28.67-9.55a67.84,67.84,0,0,1-27.81,9.05l-.09.48-7.37,0H351A67.28,67.28,0,0,1,327.59,143l-.68,3.78H296.13c-13.13,0-23.83-4.08-31-11.8a34.1,34.1,0,0,1-8.28-16.58l-3.32,1.24a49.59,49.59,0,0,1-36.25,26.26l-.14.81-7.48.07H173.05l.26-1.53a35.5,35.5,0,0,1-19-11.46,33,33,0,0,1-3.26-4.69,50.19,50.19,0,0,1-29.88,16.8l-.15.81-7.41.07H87.53c-28.64-.08-50-7.7-63.5-22.64C13.51,112.52,8.3,97.08,8.47,78.17H0L12.75,6.86H136.26L137.48,0h71.59l-1.23,6.86h31.34L240.4,0H312l-1.23,6.86H445.37l.13-.7h84.06l-.13.7h81.32l-.21,1.2a82.65,82.65,0,0,1,14.29-1.2H782.28l-25,139.92Z"/><path class="cls-2" d="M625.07,15.81a66.25,66.25,0,0,0-25.5,4.71l.85-4.71H519.23l.12-.7H453.41l-.12.7H300.86L302.1,9H248.61l-1.22,6.84H198.1L199.32,9H145.84l-1.23,6.84H21.29L11.73,69.29H19C14.62,113.45,39,137.67,88.54,137.8h26.08v-.07a45.34,45.34,0,0,0,18.06-4.59c11.13-5.57,19.07-15.88,22.23-29.59h1.48c-2.58,20.3,8,33.12,28.07,34.18v.07h26.08v-.07c17.28-.89,30.75-10.16,37.35-25.23l17.89-6.67c-1.59,19.85,9.95,32,31,32h23.32l1.53-8.54c7.24,5.67,17.29,8.54,30,8.54h55.93v0c14.51-.34,26.84-4.52,36.72-12.47,4.95,8,14.25,12.5,27.11,12.5H498.2l5.37-30.07c-.71,18.72,10.75,30.07,31.16,30.07H610.1c15.9,0,29.26-4.5,39.73-13.39a54.45,54.45,0,0,0,11.62-13.79c10.55,17.79,31.78,27.18,62.8,27.18h25.64l15.5-86.7,6.31-35.3Z"/><polygon class="cls-1" points="756.46 46.51 764.02 48.91 756.46 51 754.57 48.89 756.46 46.51"/><polygon class="cls-1" points="701.31 48.88 710.57 51.84 702.13 53.11 701.56 51.3 701.31 48.88"/><polygon class="cls-1" points="614.24 55.41 623.89 58.61 616.28 60.84 615.13 59.82 614.24 55.41"/><polygon class="cls-1" points="491.03 63.76 500.45 67.42 490.69 68.72 488.69 68.34 491.03 63.76"/><path class="cls-1" d="M459.51,67.63l8.3,2.82-8.66.84C459.26,70.23,459.51,67.63,459.51,67.63Z"/><path class="cls-1" d="M457.05,54.34h5.44l3.68-20.55H425.06l-3.67,20.55h20.55L435.81,88.6q-2.44,13.71-16.15,13.7h-6.85l-3.68,20.56H416q34.26,0,40.39-34.26l5.35-29.92Zm13.45.15h2.94l-8.55,47.81q-3.67,20.57,16.87,20.56h6.86l3.67-20.56h-6.85l7.81-43.65-4.65-4.31h5.48l.25.15h9.18l3.83-21.4h-33ZM589.13,68.05,585.46,88.6h54.81q-2.44,13.71-16.15,13.7H583l-3.68,20.56h41.11q34.26,0,40.38-34.26l3.68-20.55H609.69q2.44-13.71,16.15-13.71H667l3.68-20.55H629.52Q595.26,33.79,589.13,68.05Zm150-34.26L727,101.55q-33.4-4.72-27-40.35l.45-2.51-4.69-4.35h5.47l3.67-20.55h-27.4L673.8,54.34h6.85l-1.22,6.86q-11,61.65,55.16,61.66h9.18L759.7,33.79ZM511.84,54.34h24.93l-8.57,48q-3.68,20.57,16.87,20.56h6.86l3.67-20.56h-6.85l7.8-43.6-4.7-4.36h32.88l3.68-20.55h-72.9Z"/><path class="cls-3" d="M455.28,54.34h5.45l3.67-20.55H423.3l-3.68,20.55h20.55L434.05,88.6q-2.44,13.71-16.15,13.7H411l-3.67,20.56h6.85q34.26,0,40.38-34.26L460,58.68Zm13.46.15h2.93l-8.55,47.81q-3.67,20.57,16.88,20.56h6.85l3.68-20.56h-6.85l7.8-43.65-4.64-4.31h5.48l.25.15h9.18l3.83-21.4h-33ZM587.37,68.05,583.69,88.6h54.82q-2.46,13.71-16.16,13.7H581.24l-3.67,20.56h41.11q34.25,0,40.38-34.26l3.68-20.55H607.92q2.46-13.71,16.16-13.71h41.11l3.67-20.55H627.75Q593.49,33.79,587.37,68.05Zm150-34.26-12.12,67.76q-33.42-4.72-27-40.35l.45-2.51L694,54.34h5.46l3.68-20.55H675.71L672,54.34h6.85l-1.23,6.86q-11,61.65,55.16,61.66H742l15.93-89.07ZM510.07,54.34H535l-8.58,48q-3.67,20.57,16.88,20.56h6.85l3.68-20.56H547l7.79-43.6-4.7-4.36H583l3.67-20.55H513.75Z"/><polygon class="cls-3" points="754.5 47.4 762 48.97 752.67 50.38 754.5 47.4"/><polygon class="cls-3" points="698.98 50.38 707.78 52.04 698.41 53.82 698.98 50.38"/><polygon class="cls-3" points="612.13 56.82 620.37 58.61 610.78 59.01 612.13 56.82"/><polygon class="cls-1" points="555.02 59.69 565.17 62.65 557.23 64.16 555.95 63.06 555.02 59.69"/><polygon class="cls-3" points="553.13 60.76 561.18 62.66 551.49 64.54 553.13 60.76"/><polygon class="cls-3" points="456.68 68.72 464.41 70.44 458.23 72.84 455.85 70.89 456.68 68.72"/><polygon class="cls-3" points="490.21 65.68 499.94 68.24 487.36 71.76 490.21 65.68"/><path class="cls-4" d="M547.15,78.36H534.83l-4.28,24c-2,11.36,2.13,16.43,13.5,16.43h2.73l2.2-12.32h-6.85Zm186.37,0-5,27.91-4.56-.64c-18.14-2.57-28.48-11.89-30.54-27.27H680.3c.67,27.13,18.22,40.38,53.26,40.38h5.06l7.23-40.38Zm-143.88,0-1.09,6.13h54.81l-.74,4.11c-2,11.49-9.51,17.82-21,17.82h-37l-2.2,12.32h37c20.57,0,31.86-9.57,35.53-30.14l1.84-10.24Zm-105.8,0H471.52l-4.28,24c-2,11.36,2.13,16.43,13.5,16.43h2.73l2.21-12.32h-6.86Zm-43.84,0L438.16,88.6c-2.05,11.49-9.51,17.82-21,17.82h-2.74l-2.2,12.32H415c20.56,0,31.85-9.57,35.53-30.14l1.83-10.24Z"/><path class="cls-1" d="M329.76,32.78h80.57l-3.68,20.56H348.19l4.54,4.21L351,67h47.69L386.82,87.59H347.36q-2.44,13.71,11.25,13.71h39.47l-3.68,20.55H354.94q-34.26,0-28.13-34.26H320L323.63,67h6.85l2.45-13.7h-6.85ZM283,25.93H262.47l-1.23,6.85H220.13l-3.67,20.56h6.85l-8.58,48h-6.85l-3.68,20.55h6.86q20.55,0,24.23-20.55l7.8-43.64-4.66-4.32h19.14L250,95.83l22-8.24,6.13-34.25h13.7l-8.57,48q-3.67,20.55,16.88,20.55H307l3.67-20.55H303.8l8.58-48h6.85l3.67-20.56H281.8ZM31.47,53.34h6.85l-1.23,6.85q-11,61.66,55.16,61.66h9.18L111.23,67H68.74L73.3,87.59H87l-2.31,13q-33.42-4.73-27-40.35l.44-2.49-4.7-4.36h60.29l3.68-20.56H35.14ZM179,32.78h34.26L209.6,53.34h-6.85l-8.57,48H201l-3.68,20.55H190.5q-20.55,0-16.88-20.55l2.45-13.71H141.81l-2.45,13.71q-3.68,20.55-24.23,20.55h-6.85L112,101.3h6.85l8.58-48h-6.86l3.68-20.56h34.26l1.22-6.85h20.56ZM148.08,53.34H142.6l4.58,4.25L145.49,67h34.26l2.45-13.7Z"/><path class="cls-3" d="M328,32.78h80.57l-3.67,20.56H346.42L351,57.55,349.27,67H397L385.06,87.59H345.6q-2.46,13.71,11.25,13.71h39.46l-3.67,20.55H353.17q-34.26,0-28.13-34.26h-6.85L321.87,67h6.85l2.45-13.7h-6.85Zm-46.73-6.85H260.7l-1.22,6.85H218.37l-3.68,20.56h6.85l-8.57,48h-6.86l-3.67,20.55h6.85q20.55,0,24.23-20.55l7.8-43.64-4.65-4.32H255.8l-7.6,42.49,22-8.24,6.12-34.25h13.71l-8.58,48q-3.68,20.55,16.88,20.55h6.85l3.68-20.55H302l8.57-48h6.85l3.68-20.56H280ZM29.7,53.34h6.85l-1.22,6.85q-11,61.66,55.16,61.66h9.18L109.47,67H67l4.56,20.55h13.7l-2.32,13q-33.4-4.73-27-40.35l.45-2.49-4.7-4.36h60.29l3.67-20.56H33.38ZM177.26,32.78h34.26l-3.68,20.56H201l-8.58,48h6.85l-3.67,20.55h-6.85q-20.56,0-16.88-20.55l2.45-13.71H140.05L137.6,101.3q-3.67,20.55-24.23,20.55h-6.85l3.67-20.55h6.86l8.57-48h-6.85l3.68-20.56H156.7l1.23-6.85h20.55ZM146.32,53.34h-5.48l4.58,4.25L143.73,67H178l2.45-13.7Z"/><path class="cls-5" d="M233.69,77.35l-4.29,24c-2,11.37-8,16.43-19.37,16.43h-2.74l2.2-12.32h6.86l5-28.06Zm68.51,0H289.88l-4.28,24c-2,11.37,2.13,16.43,13.5,16.43h2.73L304,105.41h-6.86Zm-46.58,0-2.21,12.39,13.2-4.93,1.33-7.46Zm-181.92,0,1.36,6.13h15l-3.9,21.79-4.56-.65c-18.14-2.57-28.48-11.89-30.54-27.27H38c.66,27.13,18.21,40.38,53.25,40.38h5.07l7.22-40.38Zm118.88,0H125.44l-5,28.06h-6.86l-2.2,12.32h2.74c11.36,0,17.34-5.06,19.37-16.43l3.19-17.82h42.49L176,101.3c-2,11.37,2.13,16.43,13.5,16.43h2.74l2.2-12.32h-6.85Zm148.9,10.24.74-4.11H383l3.55-6.13H324.14L323,83.48h6.85l-.73,4.11c-3.68,20.57,4.18,30.14,24.75,30.14h35.35l2.2-12.32H356.11C344.62,105.41,339.42,99.08,341.48,87.59Z"/><path class="cls-2" d="M765.4,51.11l-15.5,86.7H724.25c-31,0-52.25-9.39-62.79-27.18a54.66,54.66,0,0,1-11.62,13.79c-10.48,8.89-23.84,13.39-39.73,13.39H534.74c-20.42,0-31.88-11.35-31.17-30.07l-5.37,30.07H471.43c-12.86,0-22.17-4.49-27.12-12.5-9.87,7.95-22.21,12.13-36.72,12.47v0H394.21l8-56.78L762.09,50.38Z"/><path class="cls-1" d="M448.85,80.61l-4.19.37.26-1.41H432.59l-.44,2.52-2.39.2-1.34,7.53q-2.44,13.7-16.16,13.7h-6.85l-3.67,20.55h6.84q34.26,0,40.39-34.25l1.67-9.36ZM478,103.52l4.63-25.89-1.79.16-19.09,1.68-4.3,24q-3.67,20.57,16.87,20.55h6.86l3.67-20.55ZM602.29,69.27q.23-1.18.51-2.25l-1.81.16-19.18,1.69c0,.13-.06.26-.08.4l-3.67,20.55h54.81q-2.45,13.7-16.16,13.7h-41.1l-3.68,20.55H613q34.26,0,40.38-34.25l3.68-20.55Zm144.8-15L728,56l-8.37,46.81c-.59-.08-1.15-.18-1.72-.28q-31.53-5.37-25.33-40.08l.45-2.5-.84-.78-1.61.14L672.3,60.89,672,62.41q-11,61.66,55.16,61.66h9.18l12.51-69.95ZM541.35,103.52,547,72l-1.79.16-19.09,1.68-5.32,29.73q-3.67,20.57,16.87,20.55h6.86l3.67-20.55Z"/><path class="cls-3" d="M444.66,81l.26-1.41H432.59l-.44,2.52-2.39.2-1.79.17-1.32,7.36q-2.44,13.7-16.15,13.7h-6.86L400,124.07h6.85q34.26,0,40.39-34.25l1.64-9.21Zm31.62,22.54,4.6-25.73-19.09,1.68-1.8.16-4.26,23.89q-3.68,20.57,16.87,20.55h6.86l3.67-20.55ZM600.53,69.27c.13-.73.28-1.43.46-2.09l-19.18,1.69L580,69a1.44,1.44,0,0,0,0,.24L576.3,89.82h54.8q-2.45,13.7-16.15,13.7h-41.1l-3.68,20.55h41.11q34.26,0,40.38-34.25l3.68-20.55ZM728,56l-1.8.17-8.29,46.36,0,.28Q684.44,98,690.81,62.41l.46-2.5-.69-.64L672.3,60.89l-1.8.15-.24,1.37q-11,61.66,55.16,61.66h9.18l12.49-69.79ZM539.59,103.52l5.62-31.41-19.09,1.68-1.8.15L519,103.52q-3.67,20.57,16.87,20.55h6.86l3.67-20.55Z"/><path class="cls-6" d="M534.74,107.64l5-28.07H527.43l-4.28,24c-2,11.37,2.13,16.44,13.49,16.44h2.75l2.2-12.32ZM726.12,79.57l-5,27.92-4.56-.65C698.43,104.28,688.09,95,686,79.57H672.9c.67,27.14,18.23,40.39,53.26,40.39h5.06l7.22-40.39Zm-143.87,0-1.1,6.13H636l-.74,4.12c-2.05,11.48-9.51,17.82-21,17.82h-37L575,120h37c20.56,0,31.85-9.58,35.52-30.14l1.84-10.25ZM471.43,107.64l5-28.07H464.12l-4.28,24C457.8,114.89,462,120,473.33,120h2.75l2.2-12.32ZM432.59,79.57l-.44,2.52-1.38,7.73c-2.06,11.48-9.52,17.82-21,17.82H407L404.82,120h2.73c20.58,0,31.86-9.58,35.54-30.14L444.66,81l.26-1.41Z"/><path class="cls-3" d="M460.73,85.4l17.19-1.72s.45-3.1,0-3.06-11.16-.81-14.15-.3l-3,.5Z"/><polygon class="cls-3" points="426.91 88.4 447.73 86.91 444.19 83.68 429.5 83.77 426.91 88.4"/><path class="cls-2" d="M765.28,51.35c-4.54.67-10,1.43-16.21,2.22-10.39,1.31-23,2.73-37.5,4.16l-48.69,5-57.6,5.77c-20.46,2-42,4.23-64.32,6.28l-34,3.2-17.32,1.64-17.5,1.56c-4.89.43-9.8,1-14.73,1.56L391.1,87.59l21.73-12.15c4.28-.37,54.08-5.27,58.34-5.63q8.81-.74,17.52-1.47L506,67l34-2.67C562.4,62.5,584,61,604.5,59.47l57.74-4.19,48.81-3.48c14.53-1.06,27.21-1.83,37.67-2.32,6.36-.3,11.89-.48,16.51-.6a.13.13,0,0,0,0,.06,5.2,5.2,0,0,0-.13,1.12A5,5,0,0,0,765.28,51.35Z"/></g></g></svg>