<?xml version="1.0" encoding="UTF-8" standalone="no"?>
<svg
   xmlns:dc="http://purl.org/dc/elements/1.1/"
   xmlns:cc="http://creativecommons.org/ns#"
   xmlns:rdf="http://www.w3.org/1999/02/22-rdf-syntax-ns#"
   xmlns:svg="http://www.w3.org/2000/svg"
   xmlns="http://www.w3.org/2000/svg"
   xmlns:sodipodi="http://sodipodi.sourceforge.net/DTD/sodipodi-0.dtd"
   xmlns:inkscape="http://www.inkscape.org/namespaces/inkscape"
   inkscape:version="1.0 (4035a4f, 2020-05-01)"
   sodipodi:docname="professional-network-linkedin.svg"
   version="1.1"
   viewBox="0 0 24 24"
   data-name="Outline Version"
   id="Outline_Version">
  <metadata
     id="metadata1441">
    <rdf:RDF>
      <cc:Work
         rdf:about="">
        <dc:format>image/svg+xml</dc:format>
        <dc:type
           rdf:resource="http://purl.org/dc/dcmitype/StillImage" />
      </cc:Work>
    </rdf:RDF>
  </metadata>
  <defs
     id="defs1439" />
  <sodipodi:namedview
     inkscape:current-layer="Outline_Version"
     inkscape:window-maximized="0"
     inkscape:window-y="23"
     inkscape:window-x="0"
     inkscape:cy="12"
     inkscape:cx="6.8148148"
     inkscape:zoom="37.125"
     showgrid="false"
     id="namedview1437"
     inkscape:window-height="1009"
     inkscape:window-width="1713"
     inkscape:pageshadow="2"
     inkscape:pageopacity="0"
     guidetolerance="10"
     gridtolerance="10"
     objecttolerance="10"
     borderopacity="1"
     bordercolor="#666666"
     pagecolor="#ffffff" />
  <title
     id="title1428">professional-network-linkedin</title>
  <path
     style="fill:#08ff07;fill-opacity:1"
     id="path1430"
     d="M.81,7.95a.75.75,0,0,0-.75.75V22.63a.75.75,0,0,0,.75.75H5.67a.75.75,0,0,0,.75-.75V8.7a.75.75,0,0,0-.75-.75ZM4.92,21.88H1.56V9.45H4.92Z" />
  <path
     style="fill:#08ff07;fill-opacity:1"
     id="path1432"
     d="M17.89,7.94a7.35,7.35,0,0,0-3.53.93V8.7a.75.75,0,0,0-.75-.75H8.51a.75.75,0,0,0-.75.75V22.63a.75.75,0,0,0,.75.75h5.11a.75.75,0,0,0,.75-.75V15.38a1.39,1.39,0,0,1,2.79,0v7.25a.75.75,0,0,0,.75.75h5.36a.75.75,0,0,0,.75-.75V15.5C24,10.83,21.67,7.94,17.89,7.94Zm4.62,13.94H18.65v-6.5a2.89,2.89,0,0,0-5.79,0v6.5H9.26V9.45h3.61v.84a.75.75,0,0,0,1.26.55,6.07,6.07,0,0,1,3.77-1.4c2.93,0,4.62,2.21,4.62,6.06Z" />
  <path
     style="fill:#08ff07;fill-opacity:1"
     id="path1434"
     d="M3.24,7.13A3.25,3.25,0,1,0,0,3.88,3.25,3.25,0,0,0,3.24,7.13Zm0-5A1.75,1.75,0,1,1,1.49,3.88,1.75,1.75,0,0,1,3.24,2.13Z" />
</svg>
