<?xml version="1.0" encoding="UTF-8" standalone="no"?>
<svg
   xmlns:dc="http://purl.org/dc/elements/1.1/"
   xmlns:cc="http://creativecommons.org/ns#"
   xmlns:rdf="http://www.w3.org/1999/02/22-rdf-syntax-ns#"
   xmlns:svg="http://www.w3.org/2000/svg"
   xmlns="http://www.w3.org/2000/svg"
   xmlns:sodipodi="http://sodipodi.sourceforge.net/DTD/sodipodi-0.dtd"
   xmlns:inkscape="http://www.inkscape.org/namespaces/inkscape"
   id="Outline_Version"
   data-name="Outline Version"
   viewBox="0 0 24 24"
   version="1.1"
   sodipodi:docname="social-media-facebook.svg"
   inkscape:version="1.0 (4035a4f, 2020-05-01)">
  <metadata
     id="metadata842">
    <rdf:RDF>
      <cc:Work
         rdf:about="">
        <dc:format>image/svg+xml</dc:format>
        <dc:type
           rdf:resource="http://purl.org/dc/dcmitype/StillImage" />
      </cc:Work>
    </rdf:RDF>
  </metadata>
  <defs
     id="defs840" />
  <sodipodi:namedview
     inkscape:document-rotation="0"
     pagecolor="#ffffff"
     bordercolor="#666666"
     borderopacity="1"
     objecttolerance="10"
     gridtolerance="10"
     guidetolerance="10"
     inkscape:pageopacity="0"
     inkscape:pageshadow="2"
     inkscape:window-width="1392"
     inkscape:window-height="912"
     id="namedview838"
     showgrid="false"
     inkscape:zoom="27.833333"
     inkscape:cx="5.0838323"
     inkscape:cy="12"
     inkscape:window-x="351"
     inkscape:window-y="74"
     inkscape:window-maximized="0"
     inkscape:current-layer="Outline_Version" />
  <title
     id="title833">social-media-facebook</title>
  <path
     d="M5.87,12.5H8.12V23.25a.75.75,0,0,0,.75.75h5a.75.75,0,0,0,.75-.75V12.5h3.1a.75.75,0,0,0,.75-.67l.42-4A.75.75,0,0,0,18.13,7H14.62V5.84c0-.34.1-.35.26-.35h3a.75.75,0,0,0,.75-.75v-4A.75.75,0,0,0,17.87,0H13.54c-5,0-5.42,4.29-5.42,5.6V7H5.87a.75.75,0,0,0-.75.75v4A.75.75,0,0,0,5.87,12.5Zm.75-4H8.87a.75.75,0,0,0,.75-.75V5.6c0-1.53.51-4.1,3.92-4.1h3.58V4H14.88a1.71,1.71,0,0,0-1.76,1.85V7.75a.75.75,0,0,0,.75.75H17.3L17,11H13.87a.75.75,0,0,0-.75.75V22.5H9.62V11.75A.75.75,0,0,0,8.87,11H6.62Z"
     id="path835"
     style="fill:#08ff07;stroke-width:0;stroke-miterlimit:4;stroke-dasharray:none;fill-opacity:1" />
</svg>
