<?xml version="1.0" encoding="UTF-8" standalone="no"?>
<svg
   xmlns:dc="http://purl.org/dc/elements/1.1/"
   xmlns:cc="http://creativecommons.org/ns#"
   xmlns:rdf="http://www.w3.org/1999/02/22-rdf-syntax-ns#"
   xmlns:svg="http://www.w3.org/2000/svg"
   xmlns="http://www.w3.org/2000/svg"
   xmlns:sodipodi="http://sodipodi.sourceforge.net/DTD/sodipodi-0.dtd"
   xmlns:inkscape="http://www.inkscape.org/namespaces/inkscape"
   id="Outline_Version"
   data-name="Outline Version"
   viewBox="0 0 24 24"
   version="1.1"
   sodipodi:docname="social-media-twitter.svg"
   inkscape:version="1.0 (4035a4f, 2020-05-01)">
  <metadata
     id="metadata853">
    <rdf:RDF>
      <cc:Work
         rdf:about="">
        <dc:format>image/svg+xml</dc:format>
        <dc:type
           rdf:resource="http://purl.org/dc/dcmitype/StillImage" />
      </cc:Work>
    </rdf:RDF>
  </metadata>
  <defs
     id="defs851" />
  <sodipodi:namedview
     inkscape:document-rotation="0"
     pagecolor="#ffffff"
     bordercolor="#666666"
     borderopacity="1"
     objecttolerance="10"
     gridtolerance="10"
     guidetolerance="10"
     inkscape:pageopacity="0"
     inkscape:pageshadow="2"
     inkscape:window-width="1474"
     inkscape:window-height="868"
     id="namedview849"
     showgrid="false"
     inkscape:zoom="37.125"
     inkscape:cx="6.8148148"
     inkscape:cy="12"
     inkscape:window-x="0"
     inkscape:window-y="23"
     inkscape:window-maximized="0"
     inkscape:current-layer="Outline_Version" />
  <title
     id="title844">social-media-twitter</title>
  <path
     d="M.09,18.91a.75.75,0,0,0,.43.84,20.55,20.55,0,0,0,8.29,1.93,13.13,13.13,0,0,0,7.26-2.06A12.73,12.73,0,0,0,21.83,9.06V8.61l1.79-1.29A.75.75,0,0,0,23.47,6l-1.39-.6.78-1.7a.75.75,0,0,0-.92-1l-2.17.72a5.2,5.2,0,0,0-3.2-1.11,5.26,5.26,0,0,0-5.25,5.25v.36C8.6,8.24,6,6.85,3.14,3.57a.75.75,0,0,0-1.3.35A7.8,7.8,0,0,0,2.33,9L.94,8.82a.75.75,0,0,0-.85.89,5.38,5.38,0,0,0,2.63,3.92l-.65.24a.75.75,0,0,0-.41,1,4.78,4.78,0,0,0,3.56,2.61,11.82,11.82,0,0,1-4.39.8A.75.75,0,0,0,.09,18.91ZM8,17.67a.75.75,0,0,0-.38-1.35c-2.12-.17-3.37-.43-4.17-1.37l1.87-.68a.75.75,0,0,0-.17-1.45,3.69,3.69,0,0,1-3.29-2.33L4,10.81a.75.75,0,0,0,.61-1.3A4.55,4.55,0,0,1,3.14,5.77c3,3,6,4.17,9.09,3.53a.75.75,0,0,0,.6-.73v-1A3.73,3.73,0,0,1,19.1,4.82a.75.75,0,0,0,.75.16l.93-.31-.38.83a.75.75,0,0,0,0,.59c.09.23.11.28,1.28.79l-1,.74a.75.75,0,0,0-.31.61v.83a11.21,11.21,0,0,1-5.07,9.3c-3,2-6.95,2.33-11.22,1.09A11.11,11.11,0,0,0,8,17.67Z"
     id="path846"
     style="fill:#08ff07;fill-opacity:1" />
</svg>
