<?xml version="1.0" encoding="UTF-8" standalone="no"?>
<svg
   xmlns:dc="http://purl.org/dc/elements/1.1/"
   xmlns:cc="http://creativecommons.org/ns#"
   xmlns:rdf="http://www.w3.org/1999/02/22-rdf-syntax-ns#"
   xmlns:svg="http://www.w3.org/2000/svg"
   xmlns="http://www.w3.org/2000/svg"
   xmlns:sodipodi="http://sodipodi.sourceforge.net/DTD/sodipodi-0.dtd"
   xmlns:inkscape="http://www.inkscape.org/namespaces/inkscape"
   id="Outline_Version"
   data-name="Outline Version"
   viewBox="0 0 24 24"
   version="1.1"
   sodipodi:docname="social-video-youtube-clip.svg"
   inkscape:version="1.0 (4035a4f, 2020-05-01)">
  <metadata
     id="metadata844">
    <rdf:RDF>
      <cc:Work
         rdf:about="">
        <dc:format>image/svg+xml</dc:format>
        <dc:type
           rdf:resource="http://purl.org/dc/dcmitype/StillImage" />
      </cc:Work>
    </rdf:RDF>
  </metadata>
  <defs
     id="defs842" />
  <sodipodi:namedview
     inkscape:document-rotation="0"
     pagecolor="#ffffff"
     bordercolor="#666666"
     borderopacity="1"
     objecttolerance="10"
     gridtolerance="10"
     guidetolerance="10"
     inkscape:pageopacity="0"
     inkscape:pageshadow="2"
     inkscape:window-width="1330"
     inkscape:window-height="769"
     id="namedview840"
     showgrid="false"
     inkscape:zoom="27.833333"
     inkscape:cx="12"
     inkscape:cy="19.904192"
     inkscape:window-x="214"
     inkscape:window-y="107"
     inkscape:window-maximized="0"
     inkscape:current-layer="Outline_Version" />
  <title
     id="title833">social-video-youtube-clip</title>
  <path
     style="stroke-width:1.0015748;stroke-miterlimit:4;stroke-dasharray:none;fill:#08ff07;fill-opacity:1"
     d="M19.81,3.25H4.19A4.19,4.19,0,0,0,0,7.44v9.12a4.19,4.19,0,0,0,4.19,4.19H19.81A4.19,4.19,0,0,0,24,16.56V7.44A4.19,4.19,0,0,0,19.81,3.25ZM22.5,16.56a2.69,2.69,0,0,1-2.69,2.69H4.19A2.69,2.69,0,0,1,1.5,16.56V7.44A2.69,2.69,0,0,1,4.19,4.75H19.81A2.69,2.69,0,0,1,22.5,7.44Z"
     id="path835" />
  <path
     d="M9.9,6.65a.75.75,0,0,0-1.15.63v8.66a.75.75,0,0,0,1.15.63l6.77-4.33a.75.75,0,0,0,0-1.26Zm.35,7.92V8.65l4.63,3Z"
     id="path837"
     style="fill:#08ff07;fill-opacity:1;stroke:none;stroke-opacity:1" />
</svg>
