<?xml version="1.0" encoding="UTF-8" standalone="no"?>
<svg
   xmlns:dc="http://purl.org/dc/elements/1.1/"
   xmlns:cc="http://creativecommons.org/ns#"
   xmlns:rdf="http://www.w3.org/1999/02/22-rdf-syntax-ns#"
   xmlns:svg="http://www.w3.org/2000/svg"
   xmlns="http://www.w3.org/2000/svg"
   xmlns:sodipodi="http://sodipodi.sourceforge.net/DTD/sodipodi-0.dtd"
   xmlns:inkscape="http://www.inkscape.org/namespaces/inkscape"
   inkscape:version="1.0 (4035a4f, 2020-05-01)"
   sodipodi:docname="social-instagram.svg"
   version="1.1"
   viewBox="0 0 24 24"
   data-name="Outline Version"
   id="Outline_Version">
  <metadata
     id="metadata865">
    <rdf:RDF>
      <cc:Work
         rdf:about="">
        <dc:format>image/svg+xml</dc:format>
        <dc:type
           rdf:resource="http://purl.org/dc/dcmitype/StillImage" />
      </cc:Work>
    </rdf:RDF>
  </metadata>
  <defs
     id="defs863" />
  <sodipodi:namedview
     inkscape:current-layer="Outline_Version"
     inkscape:window-maximized="0"
     inkscape:window-y="23"
     inkscape:window-x="0"
     inkscape:cy="12"
     inkscape:cx="6.8148148"
     inkscape:zoom="37.125"
     showgrid="false"
     id="namedview861"
     inkscape:window-height="1009"
     inkscape:window-width="1713"
     inkscape:pageshadow="2"
     inkscape:pageopacity="0"
     guidetolerance="10"
     gridtolerance="10"
     objecttolerance="10"
     borderopacity="1"
     bordercolor="#666666"
     pagecolor="#ffffff" />
  <title
     id="title852">social-instagram</title>
  <path
     style="fill:#08ff07;fill-opacity:1"
     id="path854"
     d="M6.74,24h10.5A6.76,6.76,0,0,0,24,17.25V6.75A6.76,6.76,0,0,0,17.24,0H6.74A6.76,6.76,0,0,0,0,6.75v10.5A6.76,6.76,0,0,0,6.74,24ZM1.49,6.75A5.26,5.26,0,0,1,6.74,1.5h10.5a5.26,5.26,0,0,1,5.25,5.25v10.5a5.26,5.26,0,0,1-5.25,5.25H6.74a5.26,5.26,0,0,1-5.25-5.25Z" />
  <path
     style="stroke-width:1;fill:#08ff07;fill-opacity:1"
     id="path856"
     d="M 12,17.75 A 5.75,5.75 0 1 0 6.24,11.999999 5.76,5.7599999 0 0 0 12,17.75 Z M 12,7.7499995 A 4.25,4.25 0 1 1 7.74,11.999999 4.26,4.26 0 0 1 12,7.7499995 Z" />
  <circle
     style="fill:#08ff07;fill-opacity:1"
     id="circle858"
     r="1.25"
     cy="5.15"
     cx="18.84" />
</svg>
