<svg   
   xmlns="http://www.w3.org/2000/svg"
   viewBox="0 0 578.63763 308.01251"
   height="308"
   width="578">
  <g
     transform="translate(242.44978,59.512214)"
     id="layer1">
    <path
       fill="#08ff07"
       d="m 292.17148,32.622282 c -0.007,26.580608 -21.54928,48.128648 -48.1299,48.141898 -26.5842,0 -47.84199,-21.55769 -47.84199,-48.141898 0,-63.477439 93.8838,-62.069771 95.97189,0 0.0372,0.764656 0.01,-0.636175 3e-5,0 z m -48.42981,-89.469797 c -49.22747,-0.10676 -89.2516,39.654856 -89.46978,88.881969 L 98.46423,112.06301 c -2.3513,-0.29991 -4.72662,-0.29991 -6.79,-0.29991 -12.05447,0.0468 -23.87796,3.3105 -34.249972,9.45323 L -107.50004,54.02592 c -6.69797,-30.681229 -33.85704,-52.5582602 -65.26088,-52.5686022 -36.98836,0.07918 -66.95179,30.0479962 -67.02437,67.0363622 0.0792,36.98565 30.03874,66.95059 67.02437,67.03637 12.05445,-0.0468 23.87794,-3.31051 34.24996,-9.45324 l 164.924308,67.19041 c 6.69795,30.68124 33.857032,52.55826 65.260882,52.5686 34.54987,0 63.20949,-26.57221 66.43653,-60.23435 l 85.94283,-62.89758 c 49.42652,0.0336 89.50296,-40.04326 89.46978,-89.469789 0.0336,-49.426529 -40.35517,-90.114786 -89.7817,-90.081616 z m 0,29.523357 c 33.09927,0.0204 59.92659,26.84716176 59.94644,59.94644 -0.0204,33.099278 -26.84717,59.926588 -59.94644,59.946438 -33.09458,-0.0264 -59.9146,-26.85184 -59.93444,-59.946438 0.0204,-33.09459724 26.83986,-59.919976 59.93444,-59.94644 z m -416.8145,45.612548 c 18.89446,0 35.13771,11.22871 43.41528,26.58421 l -24.50882,-9.741145 c -19.7822,-7.089923 -41.6398,2.651223 -49.30556,22.145515 -7.98966,19.49429 1.16366,41.6398 20.35804,50.19329 l 20.66995,8.26558 c -3.48041,0.8328 -7.05051,1.23171 -10.62889,1.18766 -27.25934,0.0528 -49.37076,-22.05822 -49.31755,-49.31756 -0.0528,-27.259339 22.05821,-49.370756 49.31755,-49.31755 z M 91.3743,129.19399 c 1.64785,-0.004 3.27689,0.0732 4.88336,0.22734 24.96968,2.39865 44.49048,23.46584 44.4342,49.07817 0.0528,27.2574 -22.06016,49.3654 -49.31756,49.30555 -18.25496,0.0828 -35.019462,-10.06242 -43.415272,-26.27229 7.97766,3.25104 16.243252,6.50209 24.232902,9.74115 20.0597,7.91197 42.76315,-1.67487 51.08104,-21.56969 8.00753,-20.05555 -1.77827,-42.80315 -21.84562,-50.78113 l -20.37003,-8.25358 c 1.55056,-0.38892 3.1011,-0.66736 4.65267,-0.85739 0.01,-0.001 0.019,-0.002 0.03,-0.004 0.3166,-0.0384 0.63331,-0.0732 0.95001,-0.10437 1.66338,-0.16543 4.86865,-0.49365 6.5364,-0.49365 z"
       id="path56"
       style="stroke:black;stroke-width:5.32897;stroke-miterlimit:4;stroke-dasharray:none;stroke-opacity:1" />
  </g>
</svg>
